<?xml version="1.0" encoding="utf-8"?>
<!-- Generator: Adobe Illustrator 19.0.0, SVG Export Plug-In . SVG Version: 6.00 Build 0)  -->
<svg version="1.1" id="Layer_1" xmlns="http://www.w3.org/2000/svg" xmlns:xlink="http://www.w3.org/1999/xlink" x="0px" y="0px"
	 viewBox="-280 370 50 53" style="enable-background:new -280 370 50 53;" xml:space="preserve">
<style type="text/css">
	.st0{fill:#FFFFFF;}
</style>
<title>5</title>
<desc>Created with Sketch.</desc>
<g id="Marshmello_landing-page">
	<g id="Marshmello_landngpage-Copy" transform="translate(-164.000000, -986.000000)">
		<g id="_x35_" transform="translate(164.000000, 986.000000)">
			<g id="_x30_12-blog" transform="translate(25.000000, 25.000000) scale(-1, 1) translate(-25.000000, -25.000000) ">
				<path id="Shape" class="st0" d="M328,371.5H282c-1.1,0-2,0.9-2,2v46.1c0,1.1,0.9,2,2,2H328c1.1,0,2-0.9,2-2c0-2.1,0-45.3,0-46.1
					C330,372.4,329.1,371.5,328,371.5z M326.1,417.6h-42.2v-33.8h42.2V417.6z M326.1,379.9h-42.2v-4.5h42.2V379.9z M289.1,410.5
					h16.3c1.1,0,2-0.9,2-2v-15.6c0-1.1-0.9-2-2-2h-16.3c-1.1,0-2,0.9-2,2v15.6C287.1,409.6,288,410.5,289.1,410.5z M291,394.8h12.4
					v11.7H291V394.8z M311.8,400.7c0-1.1,0.9-2,2-2h7.1c1.1,0,2,0.9,2,2s-0.9,2-2,2h-7.1C312.7,402.7,311.8,401.8,311.8,400.7z
					 M311.8,408.5c0-1.1,0.9-2,2-2h7.1c1.1,0,2,0.9,2,2s-0.9,2-2,2h-7.1C312.7,410.5,311.8,409.6,311.8,408.5z"/>
			</g>
		</g>
	</g>
</g>
</svg>
