<?xml version="1.0" encoding="utf-8"?>
<!-- Generator: Adobe Illustrator 19.0.0, SVG Export Plug-In . SVG Version: 6.00 Build 0)  -->
<svg version="1.1" id="Layer_1" xmlns="http://www.w3.org/2000/svg" xmlns:xlink="http://www.w3.org/1999/xlink" x="0px" y="0px"
	 viewBox="-280 371 50 51" style="enable-background:new -280 371 50 51;" xml:space="preserve">
<style type="text/css">
	.st0{fill:#FFFFFF;}
</style>
<title>4</title>
<desc>Created with Sketch.</desc>
<g id="Marshmello_landing-page">
	<g id="Marshmello_landngpage-Copy" transform="translate(-548.000000, -988.000000)">
		<g id="_x34_" transform="translate(548.000000, 988.000000)">
			<g id="_x30_24-video-player" transform="translate(25.000000, 25.000000) scale(-1, 1) translate(-25.000000, -25.000000) ">
				<path id="Shape" class="st0" d="M328,371.5H282c-1.1,0-2,0.9-2,2v46.1c0,1.1,0.9,2,2,2H328c1.1,0,2-0.9,2-2v-46.1
					C330,372.4,329.1,371.5,328,371.5z M326.1,417.6h-42.2v-42.2h42.2V417.6z M295.8,397.5c0,1.1,0.9,2,2,2h14.6c1.1,0,2-0.9,2-2
					c0-3.2-1.6-6-4.1-7.7c1.1-1.2,1.7-2.8,1.7-4.6c0-3.8-3.1-6.9-6.9-6.9s-6.9,3.1-6.9,6.9c0,1.8,0.7,3.4,1.7,4.6
					C297.4,391.5,295.8,394.3,295.8,397.5L295.8,397.5z M305,382.2c1.7,0,3,1.3,3,3c0,1.7-1.3,3-3,3s-3-1.3-3-3
					S303.3,382.2,305,382.2z M305,392.1c2.3,0,4.2,1.4,5,3.4H300C300.8,393.5,302.7,392.1,305,392.1z M287.4,408.4c0-1.1,0.9-2,2-2
					h5.5v-1.8c0-1.1,0.9-2,2-2s2,0.9,2,2v1.8h21.9c1.1,0,2,0.9,2,2s-0.9,2-2,2h-21.9v1.8c0,1.1-0.9,2-2,2s-2-0.9-2-2v-1.8h-5.5
					C288.3,410.4,287.4,409.5,287.4,408.4z"/>
			</g>
		</g>
	</g>
</g>
</svg>
