<?xml version="1.0" encoding="utf-8"?>
<!-- Generator: Adobe Illustrator 19.0.0, SVG Export Plug-In . SVG Version: 6.00 Build 0)  -->
<svg version="1.1" id="Layer_1" xmlns="http://www.w3.org/2000/svg" xmlns:xlink="http://www.w3.org/1999/xlink" x="0px" y="0px"
	 viewBox="-280 372 50 50" style="enable-background:new -280 372 50 50;" xml:space="preserve">
<style type="text/css">
	.st0{fill:#FFFFFF;}
</style>
<title>8</title>
<desc>Created with Sketch.</desc>
<g id="Marshmello_landngpage-Copy" transform="translate(-164.000000, -754.000000)">
	<g id="_x38_" transform="translate(164.000000, 754.000000)">
		<g id="_x30_05-analytics" transform="translate(25.000000, 25.000000) scale(-1, 1) translate(-25.000000, -25.000000) ">
			<path id="Shape" class="st0" d="M305,372c-13.8,0-25,11.2-25,25c0,13.8,11.2,25,25,25c13.8,0,25-11.2,25-25
				C330,383.2,318.8,372,305,372z M317.7,413.8v-12.9c0-1.1-0.9-2-2-2s-2,0.9-2,2v15.3c-2.1,1-4.4,1.6-6.8,1.8v-14.2
				c0-1.1-0.9-2-2-2s-2,0.9-2,2V418c-2.4-0.2-4.7-0.8-6.8-1.8v-12.4c0-1.1-0.9-2-2-2s-2,0.9-2,2v10c-3.2-2.5-5.8-5.8-7.2-9.8
				l5.1-5.1H305c0.5,0,1-0.2,1.4-0.6l7.4-7.4v3.1c0,1.1,0.9,2,2,2s2-0.9,2-2v-7.8c0-1.1-0.9-2-2-2h-7.8c-1.1,0-2,0.9-2,2s0.9,2,2,2
				h3.1l-6.8,6.8h-14.8c-0.5,0-1,0.2-1.4,0.6l-3.9,3.9c-0.1-0.8-0.2-1.7-0.2-2.6c0-11.7,9.4-21.1,21.1-21.1
				c11.7,0,21.1,9.4,21.1,21.1C326.1,403.8,322.9,409.9,317.7,413.8z"/>
		</g>
	</g>
</g>
</svg>
