<?xml version="1.0" encoding="utf-8"?>
<!-- Generator: Adobe Illustrator 19.0.0, SVG Export Plug-In . SVG Version: 6.00 Build 0)  -->
<svg version="1.1" id="Layer_1" xmlns="http://www.w3.org/2000/svg" xmlns:xlink="http://www.w3.org/1999/xlink" x="0px" y="0px"
	 viewBox="-184 383 130.3 28" style="enable-background:new -184 383 130.3 28;" xml:space="preserve">
<style type="text/css">
	.st0{fill:#0BABAB;}
	.st1{fill:#705CA0;}
	.st2{fill:#FFFFFF;}
</style>
<title>Mooli.</title>
<desc>Created with Sketch.</desc>
<polygon id="XMLID_52_" class="st0" points="-166.3,408.2 -182,408.2 -174.2,392.8 "/>
<polygon id="XMLID_51_" class="st0" points="-164.4,408.2 -149.2,408.2 -160.7,385.8 -168.3,400.6 "/>
<circle id="XMLID_50_" class="st1" cx="-169.6" cy="388.2" r="2.3"/>
<g>
	<path class="st2" d="M-119.2,405.5h-4.3v-11.2l-3.1,7.3h-3l-3.1-7.3v11.2h-4.1v-16.7h5l3.8,8.4l3.8-8.4h5V405.5z"/>
	<path class="st2" d="M-100.2,399.2c0,2.1-0.6,3.7-1.8,4.9c-1.2,1.2-2.9,1.8-5.1,1.8s-3.9-0.6-5.1-1.8c-1.2-1.2-1.8-2.8-1.8-4.9
		c0-2.1,0.6-3.7,1.8-4.9c1.2-1.2,2.9-1.8,5.1-1.8c2.2,0,3.9,0.6,5.1,1.8C-100.8,395.5-100.2,397.2-100.2,399.2z M-105.1,402.3
		c0.3-0.3,0.5-0.7,0.6-1.2c0.1-0.5,0.2-1.1,0.2-1.9c0-0.7-0.1-1.4-0.2-1.9c-0.1-0.5-0.3-0.9-0.6-1.2c-0.2-0.3-0.5-0.5-0.9-0.7
		s-0.7-0.2-1.1-0.2s-0.7,0.1-1,0.2c-0.3,0.1-0.6,0.3-0.9,0.6c-0.2,0.3-0.4,0.7-0.6,1.2c-0.1,0.5-0.2,1.1-0.2,1.9
		c0,0.7,0.1,1.3,0.2,1.8c0.1,0.5,0.3,0.9,0.6,1.2c0.2,0.3,0.5,0.5,0.9,0.6c0.3,0.1,0.7,0.2,1.1,0.2c0.4,0,0.7-0.1,1-0.2
		C-105.7,402.8-105.4,402.6-105.1,402.3z"/>
	<path class="st2" d="M-82.3,399.2c0,2.1-0.6,3.7-1.8,4.9s-2.9,1.8-5.1,1.8s-3.9-0.6-5.1-1.8c-1.2-1.2-1.8-2.8-1.8-4.9
		c0-2.1,0.6-3.7,1.8-4.9c1.2-1.2,2.9-1.8,5.1-1.8c2.2,0,3.9,0.6,5.1,1.8C-82.9,395.5-82.3,397.2-82.3,399.2z M-87.3,402.3
		c0.3-0.3,0.5-0.7,0.6-1.2c0.1-0.5,0.2-1.1,0.2-1.9c0-0.7-0.1-1.4-0.2-1.9c-0.1-0.5-0.3-0.9-0.6-1.2c-0.2-0.3-0.5-0.5-0.9-0.7
		s-0.7-0.2-1.1-0.2s-0.7,0.1-1,0.2c-0.3,0.1-0.6,0.3-0.9,0.6c-0.2,0.3-0.4,0.7-0.6,1.2c-0.1,0.5-0.2,1.1-0.2,1.9
		c0,0.7,0.1,1.3,0.2,1.8c0.1,0.5,0.3,0.9,0.6,1.2c0.2,0.3,0.5,0.5,0.9,0.6c0.3,0.1,0.7,0.2,1.1,0.2c0.4,0,0.7-0.1,1-0.2
		C-87.8,402.8-87.5,402.6-87.3,402.3z"/>
	<path class="st2" d="M-73.3,405.5h-4.1v-17.5h4.1V405.5z"/>
	<path class="st2" d="M-63.2,391.1h-4.3v-3.1h4.3V391.1z M-63.4,405.5h-4.1v-12.6h4.1V405.5z"/>
</g>
<circle id="XMLID_1_" class="st2" cx="-59.1" cy="403.4" r="1.8"/>
</svg>
