<?xml version="1.0" encoding="utf-8"?>
<!-- Generator: Adobe Illustrator 19.0.0, SVG Export Plug-In . SVG Version: 6.00 Build 0)  -->
<svg version="1.1" id="Layer_1" xmlns="http://www.w3.org/2000/svg" xmlns:xlink="http://www.w3.org/1999/xlink" x="0px" y="0px"
	 viewBox="-215 307 180 180" style="enable-background:new -215 307 180 180;" xml:space="preserve">
<style type="text/css">
	.st0{fill:#FFFFFF;}
	.st1{fill:#7257E5;}
	.st2{fill:#4E4E4E;}
	.st3{fill:#FDC57E;}
	.st4{fill:#B8B3DD;}
	.st5{fill:#91AAB3;}
</style>
<g id="XMLID_108_">
	<g id="XMLID_111_">
		<polygon id="XMLID_54_" class="st0" points="-187.7,414.2 -159.2,414.2 -154.7,401.3 -177.2,395 -188.9,408.1 		"/>
		<polygon id="XMLID_53_" class="st0" points="-92.3,414.2 -63.8,414.2 -62.7,402 -81.9,395 -93.5,408.1 		"/>
		<path id="XMLID_52_" class="st1" d="M-91.6,387.6l-11.6-17h-69.7l-9.1,15.5c0,0-20.7,16.8-5.7,28.1c0-7.9,6.4-14.3,14.3-14.3
			s14.3,6.4,14.3,14.3h66.9c0-7.9,6.4-14.3,14.3-14.3s14.3,6.4,14.3,14.3h3.5v-21.8C-60.4,392.4-66,387.9-91.6,387.6z"/>
		<path id="XMLID_51_" class="st2" d="M-113.3,366.8h-41.3c-6.3,0-12.5,1.3-18.2,3.8h69.7C-106,368.1-109.6,366.8-113.3,366.8z"/>
		<path id="XMLID_50_" class="st3" d="M-192.5,408.1h3.1c-1.2-3.5-0.5-7,1.1-10.3h-3.2C-193,401-193.8,404.6-192.5,408.1z"/>
		<polygon id="XMLID_49_" class="st4" points="-91.6,387.6 -103.2,370.6 -105.4,370.6 -93.7,387.6 		"/>
		<circle id="XMLID_48_" class="st2" cx="-173.4" cy="415.4" r="11.8"/>
		<circle id="XMLID_47_" class="st0" cx="-173.4" cy="415.4" r="6.5"/>
		<circle id="XMLID_46_" class="st5" cx="-173.4" cy="415.4" r="4.7"/>
		<circle id="XMLID_45_" class="st2" cx="-78.1" cy="415.4" r="11.8"/>
		<circle id="XMLID_44_" class="st0" cx="-78.1" cy="415.4" r="6.5"/>
		<circle id="XMLID_43_" class="st5" cx="-78.1" cy="415.4" r="4.7"/>
		<polygon id="XMLID_42_" class="st4" points="-139.7,387.3 -172.9,387.3 -165.3,372.4 -139.7,372.4 		"/>
		<polygon id="XMLID_41_" class="st4" points="-136.4,387.3 -98.4,387.3 -108.6,372.4 -136.4,372.4 		"/>
		<path id="XMLID_40_" class="st5" d="M-132.8,391.8h-7.9c-0.6,0-1.1,0.5-1.1,1.1s0.5,1.1,1.1,1.1h7.9c0.6,0,1.1-0.5,1.1-1.1
			S-132.2,391.8-132.8,391.8z"/>
	</g>
	<path id="XMLID_39_" class="st5" d="M-57.7,405.9c-0.9,0-1.6,0.7-1.6,1.6v2.7h-3.4v3h3.4v1.8c0,0.9,0.7,1.6,1.6,1.6h0.8v-10.7
		H-57.7z"/>
	<path id="XMLID_21_" class="st3" d="M-60.4,401.3L-60.4,401.3v-8.9l0,0c1.1,0,2.1,0.9,2.1,2.1v4.8
		C-58.3,400.4-59.2,401.3-60.4,401.3z"/>
</g>
</svg>
