<?xml version="1.0" encoding="utf-8"?>
<!-- Generator: Adobe Illustrator 19.0.0, SVG Export Plug-In . SVG Version: 6.00 Build 0)  -->
<svg version="1.1" id="Layer_1" xmlns="http://www.w3.org/2000/svg" xmlns:xlink="http://www.w3.org/1999/xlink" x="0px" y="0px"
	 viewBox="-215 307 180 180" style="enable-background:new -215 307 180 180;" xml:space="preserve">
<style type="text/css">
	.st0{fill:#4E4E4E;}
	.st1{fill:#91AAB3;}
	.st2{fill:#7257E5;}
	.st3{fill:#FDC57E;}
</style>
<g id="XMLID_22_">
	<g id="XMLID_23_">
		<path id="XMLID_38_" class="st0" d="M-127.8,376.3h-42c-1.5,0-2.8,1-3.2,2.4l-1.1,3.9c-0.6,2,0.9,4,3,4h43.4c2.4,0,4.4-2,4.4-4.4
			v-1.6C-123.4,378.1-125.4,376.3-127.8,376.3z"/>
		<rect id="XMLID_37_" x="-112.1" y="362.6" class="st0" width="10" height="2.9"/>
		<circle id="XMLID_36_" class="st0" cx="-167.1" cy="421.9" r="15.7"/>
		<g id="XMLID_32_">
			<path id="XMLID_33_" class="st1" d="M-167.1,431.9c-5.5,0-10-4.5-10-10s4.5-10,10-10s10,4.5,10,10S-161.6,431.9-167.1,431.9z
				 M-167.1,413.8c-4.5,0-8.1,3.6-8.1,8.1s3.6,8.1,8.1,8.1s8.1-3.6,8.1-8.1S-162.6,413.8-167.1,413.8z"/>
		</g>
		<circle id="XMLID_31_" class="st0" cx="-76.7" cy="421.9" r="15.7"/>
		<g id="XMLID_27_">
			<path id="XMLID_28_" class="st1" d="M-76.7,431.9c-5.5,0-10-4.5-10-10s4.5-10,10-10s10,4.5,10,10S-71.1,431.9-76.7,431.9z
				 M-76.7,413.8c-4.5,0-8.1,3.6-8.1,8.1s3.6,8.1,8.1,8.1s8.1-3.6,8.1-8.1C-68.5,417.4-72.2,413.8-76.7,413.8z"/>
		</g>
		<path id="XMLID_26_" class="st2" d="M-68.2,398.9c-3.6-2.3-7.9-3.3-12.1-3l0,0l-4.1-1c-0.2-0.1-0.4-0.3-0.4-0.5l0.1-4.8
			c0-0.2-0.1-0.4-0.3-0.5l-9.3-3.6c-0.2-0.1-0.3-0.2-0.3-0.3c-1-4.5-3.1-9.4-6.4-14.7c-0.1-0.3,0-0.6,0.1-0.8
			c0.1-0.1,0.1-0.2,0.1-0.3l0,0l0,0c0-0.1,0.1-0.2,0.1-0.3l0,0c0.3-1,1.2-1.8,2.3-1.8h1.6c1.3,0,2.3-1,2.3-2.3v-6.2
			c0-1.3-1-2.3-2.3-2.3h-3.1c-0.7,0-1.3,0.3-1.7,0.8l-1.3,1.5c-0.2,0.2-0.4,0.4-0.7,0.5l-4.8,2.5c-1.2,0.6-1.6,2.2-0.9,3.3l3,4.5
			l0.5,0.8c13.2,18.3,8.1,32,1.8,40c-0.9,1.2-2.3,1.8-3.8,1.8H-130c-2.8,0-5.4-1.3-7-3.6c-7.9-10.6,3-18.5,7.4-21.1
			c0.4-0.3,0.2-0.9-0.3-0.9h-40.5c-0.1,0-0.2,0-0.3,0.1c-1.4,1-15.4,10.6-18.2,26.8c-0.5,2.9,1.7,5.6,4.7,5.6h76.9h6.6h10
			c0.2,0,0.3-0.1,0.4-0.2l8.1-10.8c0.1-0.1,0.2-0.2,0.4-0.2h18.2c0.1,0,0.3-0.1,0.3-0.1l2.2-2.2C-60.4,404.9-67.7,399.1-68.2,398.9z
			"/>
		<path id="XMLID_25_" class="st3" d="M-97.3,361.9c0,1.8,1.1,3.4,2.7,4c0.1-0.3,0.2-0.5,0.2-0.8v-6.2c0-0.4-0.1-0.7-0.2-1
			C-96.2,358.5-97.3,360.1-97.3,361.9z"/>
		<path id="XMLID_24_" class="st0" d="M-108.1,361.9h-5.7c-1.2,0-2.2,1-2.2,2.2c0,1.2,1,2.2,2.2,2.2h5.7c1.2,0,2.2-1,2.2-2.2
			C-105.9,362.9-106.9,361.9-108.1,361.9z"/>
	</g>
</g>
</svg>
