<?xml version="1.0" encoding="utf-8"?>
<!-- Generator: Adobe Illustrator 19.0.0, SVG Export Plug-In . SVG Version: 6.00 Build 0)  -->
<svg version="1.1" id="Layer_1" xmlns="http://www.w3.org/2000/svg" xmlns:xlink="http://www.w3.org/1999/xlink" x="0px" y="0px"
	 viewBox="-215 307 180 180" style="enable-background:new -215 307 180 180;" xml:space="preserve">
<style type="text/css">
	.st0{fill:#91AAB3;}
	.st1{fill:#7257E5;}
	.st2{fill:#4E4E4E;}
	.st3{fill:#FFFFFF;}
</style>
<g>
	<g>
		
			<rect id="XMLID_20_" x="-150" y="375.5" transform="matrix(0.5364 0.844 -0.844 0.5364 249.5973 297.7406)" class="st0" width="7.5" height="1.2"/>
	</g>
	<g>
		<path id="XMLID_19_" class="st0" d="M-104.5,377.3c-0.4-1-0.8-2.1-1.2-3.1c-0.8-2.1-1.6-4.3-2.5-6.4c-0.3-0.8,0.5-2,3.7-5.1
			c0.3-0.3,0.6-0.6,0.8-0.8c0.3-0.3,0.6-0.6,0.7-1c0.3-0.6,0.3-0.9,0.2-0.9c-0.2-0.3-1.7-0.1-3.1,0.5l-9.7,3.5l-0.4-1.1l9.7-3.5
			c0.5-0.2,3.3-1.3,4.4-0.2c0.5,0.5,0.5,1.3,0,2.3c-0.2,0.5-0.6,0.9-0.9,1.3c-0.1,0.2-0.4,0.4-0.8,0.8c-0.8,0.8-3.3,3.2-3.4,3.9
			c0.9,2.1,1.7,4.3,2.5,6.4c0.4,1,0.8,2.1,1.2,3.1L-104.5,377.3z"/>
	</g>
	<g>
		<path id="XMLID_18_" class="st1" d="M-115.7,364.6c-0.5,0-0.9-0.3-1.1-0.8c-0.2-0.6,0.1-1.3,0.7-1.5l8.5-3.1
			c0.6-0.2,1.3,0.1,1.5,0.7s-0.1,1.3-0.7,1.5l-8.5,3.1C-115.5,364.6-115.6,364.6-115.7,364.6z"/>
	</g>
	<g>
		<path class="st2" d="M-163.7,385.5c-13.8,0-24.9,11.2-24.9,24.9s11.2,24.9,24.9,24.9s24.9-11.2,24.9-24.9S-150,385.5-163.7,385.5z
			 M-163.7,433.4c-12.6,0-22.9-10.3-22.9-22.9c0-12.6,10.3-22.9,22.9-22.9c12.6,0,22.9,10.3,22.9,22.9
			C-140.8,423.1-151.1,433.4-163.7,433.4z"/>
	</g>
	<g>
		<path class="st2" d="M-86.3,385.5c-13.8,0-24.9,11.2-24.9,24.9s11.2,24.9,24.9,24.9s24.9-11.2,24.9-24.9S-72.5,385.5-86.3,385.5z
			 M-86.3,433.4c-12.6,0-22.9-10.3-22.9-22.9c0-12.6,10.3-22.9,22.9-22.9s22.9,10.3,22.9,22.9C-63.3,423.1-73.6,433.4-86.3,433.4z"
			/>
	</g>
	<g>
		<path class="st3" d="M-163.7,433.4c-12.6,0-22.9-10.3-22.9-22.9c0-12.6,10.3-22.9,22.9-22.9c12.6,0,22.9,10.3,22.9,22.9
			C-140.8,423.1-151.1,433.4-163.7,433.4z M-163.7,389.3c-11.7,0-21.1,9.5-21.1,21.1s9.5,21.1,21.1,21.1c11.7,0,21.1-9.5,21.1-21.1
			S-152.1,389.3-163.7,389.3z"/>
	</g>
	<g>
		<path class="st3" d="M-86.3,433.4c-12.6,0-22.9-10.3-22.9-22.9c0-12.6,10.3-22.9,22.9-22.9s22.9,10.3,22.9,22.9
			C-63.3,423.1-73.6,433.4-86.3,433.4z M-86.3,389.3c-11.7,0-21.1,9.5-21.1,21.1s9.5,21.1,21.1,21.1c11.7,0,21.1-9.5,21.1-21.1
			S-74.6,389.3-86.3,389.3z"/>
	</g>
	<path class="st2" d="M-85.6,409.9l-6.3-7.2c-0.2-0.3-0.4-0.6-0.6-0.9l-8.8-20.7l0,0l-1.3-3.2c-0.4-1-1.5-1.7-2.6-1.7l-38.2,1.8
		c-0.7,0-1.4,0.4-1.8,1c-0.4,0.6-0.5,1.4-0.2,2l0.1,0.4l-19.2,28.5c-0.3,0.4-0.2,1,0.2,1.2c0.2,0.1,0.3,0.2,0.5,0.2
		c0.3,0,0.6-0.1,0.7-0.4l18.7-27.6l11.6,28.4c0.2,0.6,0.8,1,1.4,1.2c0.1,0,0.2,0,0.3,0c0.5,0,1-0.2,1.4-0.6l27.2-29.3l8.3,19.4
		c0.2,0.5,0.5,1,0.9,1.4l6.3,7.2c0.3,0.4,0.9,0.4,1.3,0.1C-85.3,410.9-85.3,410.3-85.6,409.9z M-130.9,411.1L-130.9,411.1
		c-0.2,0-0.2-0.1-0.2-0.1l-12.2-29.8l0,0l-0.3-0.8c-0.1-0.2,0-0.3,0-0.4c0-0.1,0.1-0.2,0.3-0.2l38.2-1.8l0,0c0.4,0,0.7,0.2,0.9,0.6
		l1.1,2.7L-130.9,411.1z"/>
	<g>
		<path class="st1" d="M-163.7,416.7c-3.5,0-6.3-2.8-6.3-6.3s2.8-6.3,6.3-6.3s6.3,2.8,6.3,6.3S-160.3,416.7-163.7,416.7z
			 M-163.7,405.9c-2.5,0-4.5,2-4.5,4.5s2,4.5,4.5,4.5s4.5-2,4.5-4.5C-159.3,407.9-161.3,405.9-163.7,405.9z"/>
	</g>
	<g>
		<path class="st1" d="M-86.3,416.7c-3.5,0-6.3-2.8-6.3-6.3s2.8-6.3,6.3-6.3s6.3,2.8,6.3,6.3S-82.8,416.7-86.3,416.7z M-86.3,405.9
			c-2.5,0-4.5,2-4.5,4.5s2,4.5,4.5,4.5s4.5-2,4.5-4.5S-83.8,405.9-86.3,405.9z"/>
	</g>
	<path id="XMLID_3_" class="st1" d="M-157,367.9c-2.1,2.1,6.8,7.5,10.3,5.2c1.9-1.2,4.4-1.4,6.5-1.8c0.7-0.1,1.9-0.2,2.4-0.8
		c0.8-0.8-0.3-2-1.2-2.4c-0.7-0.3-1.5-0.3-2.3-0.2c-2.1,0.1-4.2,0.6-6.3,0.8c-2.2,0.2-4-0.3-6.1-0.7
		C-154.8,367.8-155.9,367.9-157,367.9z"/>
	<g>
		<path class="st0" d="M-130.4,419.6c-0.4,0-0.9,0-1.3-0.1l-32.4-6.2c-0.8-0.1-1.5-0.6-1.9-1.2c-0.4-0.7-0.6-1.4-0.5-2.2
			c0.3-1.4,1.4-2.4,2.8-2.4l32.9-1.3c3.7-0.2,6.8,2.7,7,6.5c0.1,1.8-0.6,3.5-1.8,4.8c-1.2,1.3-2.9,2.1-4.7,2.2
			C-130.3,419.6-130.3,419.6-130.4,419.6z M-130.4,408c-0.1,0-0.1,0-0.2,0l-32.9,1.3c-0.5,0-1,0.4-1.1,1c-0.1,0.3,0,0.6,0.2,0.9
			c0.2,0.3,0.4,0.4,0.8,0.5l32.4,6.2c0.4,0.1,0.8,0.1,1.1,0.1c1.3-0.1,2.5-0.6,3.4-1.6s1.4-2.2,1.3-3.6
			C-125.6,410-127.8,408-130.4,408z"/>
	</g>
</g>
</svg>
